<?xml version="1.0" encoding="UTF-8" standalone="no"?>
<svg
   xmlns:dc="http://purl.org/dc/elements/1.1/"
   xmlns:cc="http://creativecommons.org/ns#"
   xmlns:rdf="http://www.w3.org/1999/02/22-rdf-syntax-ns#"
   xmlns:svg="http://www.w3.org/2000/svg"
   xmlns="http://www.w3.org/2000/svg"
   xmlns:xlink="http://www.w3.org/1999/xlink"
   xmlns:sodipodi="http://sodipodi.sourceforge.net/DTD/sodipodi-0.dtd"
   xmlns:inkscape="http://www.inkscape.org/namespaces/inkscape"
   width="210mm"
   height="297mm"
   viewBox="0 0 210 297"
   version="1.1"
   id="svg80"
   inkscape:version="1.0.2-2 (e86c870879, 2021-01-15)"
   sodipodi:docname="geoJSON.svg"
   inkscape:export-filename="C:\Users\alice.krebs\Desktop\geoJSON16.svg.png"
   inkscape:export-xdpi="5.9215927"
   inkscape:export-ydpi="5.9215927">
  <defs
     id="defs74">
    <linearGradient
       id="linearGradient8385">
      <stop
         id="stop8387"
         style="stop-color:#000000;stop-opacity:1"
         offset="0" />
      <stop
         id="stop8389"
         style="stop-color:#ffffff;stop-opacity:1"
         offset="1" />
    </linearGradient>
    <linearGradient
       x1="-553.26971"
       y1="525.90778"
       x2="-666.11639"
       y2="413.0452"
       id="linearGradient3002"
       xlink:href="#linearGradient8385"
       gradientUnits="userSpaceOnUse"
       gradientTransform="matrix(0.99884,0,0,0.998699,689.00774,-388.84375)" />
    <linearGradient
       x1="-666.11664"
       y1="413.04492"
       x2="-553.2699"
       y2="525.90759"
       id="linearGradient3005"
       xlink:href="#linearGradient8385"
       gradientUnits="userSpaceOnUse"
       gradientTransform="matrix(0.99884,0,0,0.998699,689.00774,-388.84375)" />
    <clipPath
       id="clipPath18">
      <path
         id="path20"
         inkscape:connector-curvature="0"
         d="m0 600h800v-600h-800v600z" />
    </clipPath>
    <clipPath
       clipPathUnits="userSpaceOnUse"
       id="clipPath247">
      <g
         inkscape:label="Clip"
         id="use249">
        <g
           id="g358"
           clip-path="url(#clipPath18)"
           transform="matrix(0.1623617,0,0,-0.13368086,21.691235,198.92001)">
          <g
             id="g340"
             transform="translate(554.43,299.61)">
            <path
               id="path338"
               style="fill:#7cb7ed"
               inkscape:connector-curvature="0"
               d="m 0,0 c 0,-85.29 -69.14,-154.43 -154.43,-154.43 -85.288,0 -154.43,69.139 -154.43,154.43 0,85.289 69.14,154.43 154.43,154.43 C -69.14,154.43 0,85.289 0,0" />
          </g>
          <g
             id="g344"
             transform="translate(447,151.47)">
            <path
               id="path342"
               style="fill:#ffffff"
               inkscape:connector-curvature="0"
               d="m 0,0 c 0,0 -48.604,-15.479 -97.901,1.301 0,0 28.344,4.175 41.625,11.737 C -42.995,20.601 0,0 0,0" />
          </g>
          <g
             id="g348"
             transform="translate(487.95,212.66)">
            <path
               id="path346"
               style="fill:#0fb55e"
               inkscape:connector-curvature="0"
               d="m 0,0 c 0,0 -0.919,26.656 -1.379,39.064 -0.46,12.409 4.136,20.682 -1.839,32.171 -5.974,11.49 -1.379,20.682 -6.893,21.141 -5.515,0.459 -22.979,3.677 -32.63,0 -9.652,-3.677 -30.793,12.409 -31.252,22.979 -0.459,10.57 -3.676,18.383 -3.676,18.383 0,0 11.949,19.262 15.166,18.593 3.217,-0.669 3.677,12.199 5.975,13.118 2.298,0.92 26.655,7.354 33.549,7.354 6.893,0 1.838,-7.354 1.838,-7.354 L 0,157.639 l 3.677,8.273 18.383,-5.515 c 0,0 -0.459,11.03 -4.596,12.409 -4.137,1.378 -21.601,9.651 -21.601,9.651 0,0 3.678,-6.894 1.839,-8.732 -1.839,-1.839 -7.813,8.732 -7.813,8.732 l -13.327,5.055 c 0,0 -9.192,-1.379 -14.248,-3.217 -5.055,-1.838 -7.353,-10.57 -7.353,-10.57 0,0 -9.191,-4.596 -15.166,-3.217 -5.975,1.378 -4.137,12.868 -4.137,12.868 0,0 11.03,0.919 11.949,4.136 0.919,3.217 -7.812,9.192 -7.812,9.192 l 6.893,3.217 6.434,11.232 10.111,-1.122 3.217,11.95 -0.807,11.806 c 0,0 67.293,-31.638 88.51,-83.995 l -10.953,6.928 4.596,-10.111 1.838,1.379 5.515,-10.11 v -8.273 l -2.757,-12.71 c 0,0 -17.515,29.546 -25.737,37.068 0,0 11.957,-27.574 26.197,-41.822 l 4.595,4.754 V 101.571 94.677 L 53.311,85.025 48.256,69.859 47.336,57.91 V 43.663 L 40.442,36.77 33.549,31.714 V 25.739 L 26.655,16.536 17.004,6.426 7.353,-0.009 H 0 Z" />
          </g>
          <g
             id="g352"
             transform="translate(355.05,160.34)">
            <path
               id="path350"
               style="fill:#0fb55e"
               inkscape:connector-curvature="0"
               d="m 0,0 -9.191,11.949 1.379,6.435 h 5.974 L -3.112,24.973 -1.378,33.55 0,39.983 5.199,45.39 c 0,0 11.807,4.705 10.428,21.25 0,0 10.109,13.788 7.812,21.14 -2.298,7.353 -16.145,6.894 -16.145,6.894 l -22.919,9.651 c 0,0 -1.838,9.652 -8.272,10.571 -6.435,0.918 -8.273,-3.677 -11.031,0 -2.758,3.676 -6.576,9.194 -13.858,9.652 -7.282,0.458 -16.474,6.432 -16.474,6.432 0,0 -1.379,5.055 -9.191,3.217 0,0 -5.056,5.056 -2.758,15.167 0,0 -0.459,5.515 -7.354,3.217 0,0 -5.514,5.975 -7.353,5.975 -1.838,0 -4.596,17.464 3.678,25.277 0,0 7.812,9.191 16.545,3.676 0,0 -0.461,-8.732 0.918,-12.868 1.379,-4.136 4.136,5.975 4.136,5.975 l 0.46,12.868 c 0,0 5.975,2.758 11.031,7.353 5.054,4.596 3.216,10.571 10.11,15.166 6.893,4.596 8.272,0 8.272,0 l 0.459,7.813 h 6.435 l 15.626,6.894 c 0,0 -7.354,-0.46 -10.111,3.677 l 19.761,10.57 v 5.974 l -1.355,12.409 -4.619,-5.515 -0.918,5.515 -8.733,1.121 h -3.216 l -7.354,-3.419 -0.46,-4.596 -8.272,-3.676 -4.137,4.136 3.218,4.136 3.216,3.419 8.566,11.597 c 0,0 -56.809,-31.864 -73.36,-88.241 0,0 -0.925,-17.772 -1.384,-24.206 -0.46,-6.434 5.054,-12.408 5.054,-12.408 h 5.056 l 1.838,-4.596 4.136,-1.379 2.299,-1.379 1.378,-3.583 1.838,-6.528 4.137,-0.92 2.297,-4.135 2.758,-0.46 -0.919,3.676 h 3.677 l 1.378,-3.216 -4.136,-3.217 -1.379,-3.218 -0.459,-7.352 0.459,-5.516 0.46,-5.055 -4.136,-2.298 0.918,-5.055 0.461,-3.217 v -5.056 l -2.299,-0.919 16.545,-22.519 5.056,-1.839 3.216,-0.459 5.056,-1.839 4.137,-7.812 c 0,0 13.327,-29.415 15.166,-33.55 C -27.574,15.629 -8.271,-1.376 0,0.003" />
          </g>
          <g
             id="g356"
             transform="translate(400,455.04)">
            <path
               id="path354"
               style="fill:#ffffff"
               inkscape:connector-curvature="0"
               d="m 0,0 c 51.067,0 79.29,-21.887 79.29,-21.887 0,0 -18.978,-8.148 -48.391,0 0,0 -22.689,-1.096 -38.656,-7.819 -15.966,-6.723 -24.437,10.924 -24.437,10.924 0,0 -13.981,-9.608 -38.049,1.919 0,0 31.781,16.863 70.243,16.863" />
          </g>
        </g>
        <g
           id="g364"
           transform="matrix(0.26458333,0,0,0.26458333,87.481274,153.70057)">
          <path
             d="m 79.8646,119.09957 c 35.39768,48.25534 70.03957,-13.46852 69.98868,-50.58675 C 149.79308,24.62677 105.31237,0.09913 79.8356,0.09913 38.94318,0.09913 0,33.89521 0,80.13502 c 0,51.396 44.64038,79.86497 79.8356,79.86497 -7.96447,-1.14675 -34.5062,-6.83395 -34.86292,-67.96677 -0.23987,-41.3466 13.48757,-57.86551 34.80527,-50.59905 0.47743,0.17707 23.51392,9.26451 23.51392,38.95053 0,29.55992 -23.42727,38.71487 -23.42727,38.71487 z"
             id="path360"
             style="color:#000000;display:inline;overflow:visible;visibility:visible;fill:url(#linearGradient368);fill-opacity:1;fill-rule:evenodd;stroke:none;stroke-width:0.5;marker:none" />
          <path
             d="M 79.82327,41.40081 C 56.43322,33.33893 27.78025,52.61662 27.78025,91.22962 c 0,63.04798 46.72055,68.77037 52.38416,68.77037 C 121.05683,159.99999 160,126.20391 160,79.9641 160,28.5681 115.35962,0.09913 80.16441,0.09913 c 9.74811,-1.35 52.54087,10.54991 52.54087,69.0368 0,38.14117 -31.95286,58.90496 -52.73547,50.03344 -0.47743,-0.17707 -23.51392,-9.26451 -23.51392,-38.95053 0,-29.55992 23.36738,-38.81803 23.36738,-38.81803 z"
             id="path362"
             style="color:#000000;display:inline;overflow:visible;visibility:visible;fill:url(#linearGradient370);fill-opacity:1;fill-rule:evenodd;stroke:none;stroke-width:0.5;marker:none" />
        </g>
      </g>
    </clipPath>
    <linearGradient
       inkscape:collect="always"
       xlink:href="#linearGradient8385"
       id="linearGradient368"
       gradientUnits="userSpaceOnUse"
       gradientTransform="matrix(0.99884,0,0,0.998699,689.00774,-388.84375)"
       x1="-666.11664"
       y1="413.04492"
       x2="-553.2699"
       y2="525.90759" />
    <linearGradient
       inkscape:collect="always"
       xlink:href="#linearGradient8385"
       id="linearGradient370"
       gradientUnits="userSpaceOnUse"
       gradientTransform="matrix(0.99884,0,0,0.998699,689.00774,-388.84375)"
       x1="-553.26971"
       y1="525.90778"
       x2="-666.11639"
       y2="413.0452" />
  </defs>
  <sodipodi:namedview
     id="base"
     pagecolor="#ffffff"
     bordercolor="#666666"
     borderopacity="1.0"
     inkscape:pageopacity="0.0"
     inkscape:pageshadow="2"
     inkscape:zoom="3.959798"
     inkscape:cx="480.33799"
     inkscape:cy="615.45407"
     inkscape:document-units="mm"
     inkscape:current-layer="layer1"
     inkscape:document-rotation="0"
     showgrid="false"
     inkscape:window-width="2560"
     inkscape:window-height="1361"
     inkscape:window-x="4791"
     inkscape:window-y="194"
     inkscape:window-maximized="1" />
  <metadata
     id="metadata77">
    <rdf:RDF>
      <cc:Work
         rdf:about="">
        <dc:format>image/svg+xml</dc:format>
        <dc:type
           rdf:resource="http://purl.org/dc/dcmitype/StillImage" />
        <dc:title></dc:title>
      </cc:Work>
    </rdf:RDF>
  </metadata>
  <g
     inkscape:label="Layer 1"
     inkscape:groupmode="layer"
     id="layer1">
    <g
       id="g400">
      <g
         id="g16"
         clip-path="url(#clipPath18)"
         transform="matrix(0.16326084,0,0,-0.16213663,23.209122,202.72222)">
        <g
           id="g22"
           transform="translate(554.43,299.61)">
          <path
             id="path24"
             style="fill:#7cb7ed"
             inkscape:connector-curvature="0"
             d="m 0,0 c 0,-85.29 -69.14,-154.43 -154.43,-154.43 -85.288,0 -154.43,69.139 -154.43,154.43 0,85.289 69.14,154.43 154.43,154.43 C -69.14,154.43 0,85.289 0,0" />
        </g>
        <g
           id="g26"
           transform="translate(447,151.47)">
          <path
             id="path28"
             style="fill:#ffffff"
             inkscape:connector-curvature="0"
             d="m 0,0 c 0,0 -48.604,-15.479 -97.901,1.301 0,0 28.344,4.175 41.625,11.737 C -42.995,20.601 0,0 0,0" />
        </g>
        <g
           id="g30"
           transform="translate(487.95,212.66)">
          <path
             id="path32"
             style="fill:#0fb55e"
             inkscape:connector-curvature="0"
             d="m 0,0 c 0,0 -0.919,26.656 -1.379,39.064 -0.46,12.409 4.136,20.682 -1.839,32.171 -5.974,11.49 -1.379,20.682 -6.893,21.141 -5.515,0.459 -22.979,3.677 -32.63,0 -9.652,-3.677 -30.793,12.409 -31.252,22.979 -0.459,10.57 -3.676,18.383 -3.676,18.383 0,0 11.949,19.262 15.166,18.593 3.217,-0.669 3.677,12.199 5.975,13.118 2.298,0.92 26.655,7.354 33.549,7.354 6.893,0 1.838,-7.354 1.838,-7.354 L 0,157.639 l 3.677,8.273 18.383,-5.515 c 0,0 -0.459,11.03 -4.596,12.409 -4.137,1.378 -21.601,9.651 -21.601,9.651 0,0 3.678,-6.894 1.839,-8.732 -1.839,-1.839 -7.813,8.732 -7.813,8.732 l -13.327,5.055 c 0,0 -9.192,-1.379 -14.248,-3.217 -5.055,-1.838 -7.353,-10.57 -7.353,-10.57 0,0 -9.191,-4.596 -15.166,-3.217 -5.975,1.378 -4.137,12.868 -4.137,12.868 0,0 11.03,0.919 11.949,4.136 0.919,3.217 -7.812,9.192 -7.812,9.192 l 6.893,3.217 6.434,11.232 10.111,-1.122 3.217,11.95 -0.807,11.806 c 0,0 67.293,-31.638 88.51,-83.995 l -10.953,6.928 4.596,-10.111 1.838,1.379 5.515,-10.11 v -8.273 l -2.757,-12.71 c 0,0 -17.515,29.546 -25.737,37.068 0,0 11.957,-27.574 26.197,-41.822 l 4.595,4.754 V 101.571 94.677 L 53.311,85.025 48.256,69.859 47.336,57.91 V 43.663 L 40.442,36.77 33.549,31.714 V 25.739 L 26.655,16.536 17.004,6.426 7.353,-0.009 H 0 Z" />
        </g>
        <g
           id="g34"
           transform="translate(355.05,160.34)">
          <path
             id="path36"
             style="fill:#0fb55e"
             inkscape:connector-curvature="0"
             d="m 0,0 -9.191,11.949 1.379,6.435 h 5.974 L -3.112,24.973 -1.378,33.55 0,39.983 5.199,45.39 c 0,0 11.807,4.705 10.428,21.25 0,0 10.109,13.788 7.812,21.14 -2.298,7.353 -16.145,6.894 -16.145,6.894 l -22.919,9.651 c 0,0 -1.838,9.652 -8.272,10.571 -6.435,0.918 -8.273,-3.677 -11.031,0 -2.758,3.676 -6.576,9.194 -13.858,9.652 -7.282,0.458 -16.474,6.432 -16.474,6.432 0,0 -1.379,5.055 -9.191,3.217 0,0 -5.056,5.056 -2.758,15.167 0,0 -0.459,5.515 -7.354,3.217 0,0 -5.514,5.975 -7.353,5.975 -1.838,0 -4.596,17.464 3.678,25.277 0,0 7.812,9.191 16.545,3.676 0,0 -0.461,-8.732 0.918,-12.868 1.379,-4.136 4.136,5.975 4.136,5.975 l 0.46,12.868 c 0,0 5.975,2.758 11.031,7.353 5.054,4.596 3.216,10.571 10.11,15.166 6.893,4.596 8.272,0 8.272,0 l 0.459,7.813 h 6.435 l 15.626,6.894 c 0,0 -7.354,-0.46 -10.111,3.677 l 19.761,10.57 v 5.974 l -1.355,12.409 -4.619,-5.515 -0.918,5.515 -8.733,1.121 h -3.216 l -7.354,-3.419 -0.46,-4.596 -8.272,-3.676 -4.137,4.136 3.218,4.136 3.216,3.419 8.566,11.597 c 0,0 -56.809,-31.864 -73.36,-88.241 0,0 -0.925,-17.772 -1.384,-24.206 -0.46,-6.434 5.054,-12.408 5.054,-12.408 h 5.056 l 1.838,-4.596 4.136,-1.379 2.299,-1.379 1.378,-3.583 1.838,-6.528 4.137,-0.92 2.297,-4.135 2.758,-0.46 -0.919,3.676 h 3.677 l 1.378,-3.216 -4.136,-3.217 -1.379,-3.218 -0.459,-7.352 0.459,-5.516 0.46,-5.055 -4.136,-2.298 0.918,-5.055 0.461,-3.217 v -5.056 l -2.299,-0.919 16.545,-22.519 5.056,-1.839 3.216,-0.459 5.056,-1.839 4.137,-7.812 c 0,0 13.327,-29.415 15.166,-33.55 C -27.574,15.629 -8.271,-1.376 0,0.003" />
        </g>
        <g
           id="g38"
           transform="translate(400,455.04)">
          <path
             id="path40"
             style="fill:#ffffff"
             inkscape:connector-curvature="0"
             d="m 0,0 c 51.067,0 79.29,-21.887 79.29,-21.887 0,0 -18.978,-8.148 -48.391,0 0,0 -22.689,-1.096 -38.656,-7.819 -15.966,-6.723 -24.437,10.924 -24.437,10.924 0,0 -13.981,-9.608 -38.049,1.919 0,0 31.781,16.863 70.243,16.863" />
        </g>
      </g>
      <g
         id="g148"
         transform="matrix(0.26604857,0,0,0.26976107,89.363497,149.99455)">
        <path
           d="m 79.8646,119.09957 c 35.39768,48.25534 70.03957,-13.46852 69.98868,-50.58675 C 149.79308,24.62677 105.31237,0.09913 79.8356,0.09913 38.94318,0.09913 0,33.89521 0,80.13502 c 0,51.396 44.64038,79.86497 79.8356,79.86497 -7.96447,-1.14675 -34.5062,-6.83395 -34.86292,-67.96677 -0.23987,-41.3466 13.48757,-57.86551 34.80527,-50.59905 0.47743,0.17707 23.51392,9.26451 23.51392,38.95053 0,29.55992 -23.42727,38.71487 -23.42727,38.71487 z"
           id="path7508"
           style="color:#000000;display:inline;overflow:visible;visibility:visible;fill:url(#linearGradient3005);fill-opacity:1;fill-rule:evenodd;stroke:none;stroke-width:0.5;marker:none" />
        <path
           d="M 79.82327,41.40081 C 56.43322,33.33893 27.78025,52.61662 27.78025,91.22962 c 0,63.04798 46.72055,68.77037 52.38416,68.77037 C 121.05683,159.99999 160,126.20391 160,79.9641 160,28.5681 115.35962,0.09913 80.16441,0.09913 c 9.74811,-1.35 52.54087,10.54991 52.54087,69.0368 0,38.14117 -31.95286,58.90496 -52.73547,50.03344 -0.47743,-0.17707 -23.51392,-9.26451 -23.51392,-38.95053 0,-29.55992 23.36738,-38.81803 23.36738,-38.81803 z"
           id="path7510"
           style="color:#000000;display:inline;overflow:visible;visibility:visible;fill:url(#linearGradient3002);fill-opacity:1;fill-rule:evenodd;stroke:none;stroke-width:0.5;marker:none" />
      </g>
    </g>
  </g>
</svg>
